<svg width="52" height="52" viewBox="0 0 52 52" fill="none" xmlns="http://www.w3.org/2000/svg">
<path d="M21.234 25.2601C22.6014 24.3583 24.2394 23.8334 25.9998 23.8334C30.7863 23.8334 34.6665 27.7136 34.6665 32.5C34.6665 37.2865 30.7863 41.1667 25.9998 41.1667C21.6037 41.1667 17.9721 37.8935 17.409 33.6513C16.6188 29.7676 16.3101 25.0987 17.8582 20.8726C19.5165 16.3449 23.1964 12.6287 29.7844 10.904C30.942 10.6009 32.1262 11.2938 32.4292 12.4512C32.7323 13.6089 32.0395 14.7929 30.8819 15.0961C25.5533 16.4912 23.0582 19.2749 21.9269 22.3631C21.5898 23.2839 21.3651 24.2565 21.234 25.2601Z" fill="#190D30"/>
</svg>
