<svg width="40" height="40" viewBox="0 0 40 40" fill="none" xmlns="http://www.w3.org/2000/svg">
<g clip-path="url(#clip0_285_323)">
<g clip-path="url(#clip1_285_323)">
<path fill-rule="evenodd" clip-rule="evenodd" d="M12.5 10.0005C12.5 8.01136 13.2902 6.10371 14.6967 4.69719C16.1032 3.29066 18.0109 2.50049 20 2.50049C21.9891 2.50049 23.8968 3.29066 25.3033 4.69719C26.7098 6.10371 27.5 8.01136 27.5 10.0005V20.0005C27.5 21.9896 26.7098 23.8973 25.3033 25.3038C23.8968 26.7103 21.9891 27.5005 20 27.5005C18.0109 27.5005 16.1032 26.7103 14.6967 25.3038C13.2902 23.8973 12.5 21.9896 12.5 20.0005V10.0005ZM20 4.16715C18.4529 4.16715 16.9692 4.78174 15.8752 5.8757C14.7812 6.96966 14.1667 8.45339 14.1667 10.0005V20.0005C14.1667 20.7665 14.3175 21.5251 14.6107 22.2328C14.9039 22.9405 15.3335 23.5836 15.8752 24.1253C16.4169 24.667 17.0599 25.0966 17.7677 25.3898C18.4754 25.6829 19.234 25.8338 20 25.8338C20.766 25.8338 21.5246 25.6829 22.2323 25.3898C22.9401 25.0966 23.5831 24.667 24.1248 24.1253C24.6665 23.5836 25.0961 22.9405 25.3893 22.2328C25.6825 21.5251 25.8333 20.7665 25.8333 20.0005V10.0005C25.8333 8.45339 25.2188 6.96966 24.1248 5.8757C23.0308 4.78174 21.5471 4.16715 20 4.16715Z" fill="#47A9FF"/>
<path d="M6.66731 17.5005C6.88832 17.5005 7.10028 17.5883 7.25657 17.7446C7.41285 17.9008 7.50064 18.1128 7.50064 18.3338V20.0005C7.50064 23.3157 8.8176 26.4951 11.1618 28.8393C13.506 31.1835 16.6855 32.5005 20.0007 32.5005C23.3159 32.5005 26.4953 31.1835 28.8395 28.8393C31.1837 26.4951 32.5007 23.3157 32.5007 20.0005V18.3338C32.5007 18.1128 32.5885 17.9008 32.7447 17.7446C32.901 17.5883 33.113 17.5005 33.334 17.5005C33.555 17.5005 33.767 17.5883 33.9233 17.7446C34.0795 17.9008 34.1673 18.1128 34.1673 18.3338V20.0005C34.1676 23.6137 32.7873 27.0904 30.3088 29.7195C27.8303 32.3486 24.4409 33.9313 20.834 34.1438V37.5005C20.834 37.7215 20.7462 37.9335 20.5899 38.0897C20.4336 38.246 20.2217 38.3338 20.0007 38.3338C19.7797 38.3338 19.5677 38.246 19.4114 38.0897C19.2551 37.9335 19.1673 37.7215 19.1673 37.5005V34.1438C15.5604 33.9313 12.171 32.3486 9.69247 29.7195C7.21396 27.0904 5.83367 23.6137 5.83398 20.0005V18.3338C5.83398 18.1128 5.92177 17.9008 6.07805 17.7446C6.23433 17.5883 6.4463 17.5005 6.66731 17.5005Z" fill="#47A9FF"/>
</g>
</g>
<defs>
<clipPath id="clip0_285_323">
<rect width="40" height="40" fill="white"/>
</clipPath>
<clipPath id="clip1_285_323">
<rect width="40" height="40" fill="white"/>
</clipPath>
</defs>
</svg>
